<svg xmlns="http://www.w3.org/2000/svg" viewBox="0 0 220 220"><defs><filter id="b" width="1.218" height="1.389" x="-.109" y="-.195" style="color-interpolation-filters:sRGB"><feFlood flood-color="#000" flood-opacity=".498" result="flood"/><feGaussianBlur in="SourceGraphic" result="blur" stdDeviation="3"/><feOffset in="blur" result="offset"/><feComposite in="flood" in2="offset" operator="in" result="comp1"/><feComposite in="SourceGraphic" in2="comp1" result="fbSourceGraphic"/><feColorMatrix in="fbSourceGraphic" result="fbSourceGraphicAlpha" values="0 0 0 -1 0 0 0 0 -1 0 0 0 0 -1 0 0 0 0 1 0"/><feFlood flood-color="#000" flood-opacity=".498" result="flood"/><feGaussianBlur in="fbSourceGraphic" result="blur" stdDeviation="1"/><feOffset in="blur" result="offset"/><feComposite in="flood" in2="offset" operator="in" result="comp1"/><feComposite in="fbSourceGraphic" in2="comp1" result="fbSourceGraphic"/><feColorMatrix in="fbSourceGraphic" result="fbSourceGraphicAlpha" values="0 0 0 -1 0 0 0 0 -1 0 0 0 0 -1 0 0 0 0 1 0"/><feFlood flood-color="#000" flood-opacity=".498" result="flood"/><feGaussianBlur in="fbSourceGraphic" result="blur"/><feOffset in="blur" result="offset"/><feComposite in="flood" in2="offset" operator="in" result="comp1"/><feComposite in="fbSourceGraphic" in2="comp1" result="comp2"/></filter><filter id="a" width="1.205" height="1.371" x="-.095" y="-.171" style="color-interpolation-filters:sRGB"><feFlood flood-color="#000" flood-opacity=".498" result="flood"/><feGaussianBlur in="SourceGraphic" result="blur" stdDeviation="3"/><feOffset dx="2.6" dy="3" in="blur" result="offset"/><feComposite in="flood" in2="offset" operator="in" result="comp1"/><feComposite in="SourceGraphic" in2="comp1" result="comp2"/></filter></defs><g style="display:inline;filter:url(#a)"><path d="M50.004 109.972H19.928v9.872l40.04 40.224s-9.964-10.148-10.056-28.692c-.092-18.544.092-21.404.092-21.404zM170.011 109.897h30.077v-9.872l-40.04-40.224s9.963 10.148 10.056 28.692c.092 18.544-.093 21.404-.093 21.404z" style="display:inline;fill:#fff;fill-opacity:1;stroke:#fff;stroke-width:20;stroke-linecap:round;stroke-linejoin:round"/><path d="M-117.695-117.695h15.39v15.39h-15.39z" style="display:inline;fill:#fffcfc;fill-opacity:1;stroke:#fff;stroke-width:64.6101;stroke-linecap:round;stroke-linejoin:round;stroke-dasharray:none;stroke-dashoffset:0;stroke-opacity:1;paint-order:normal" transform="scale(-1)"/></g><g style="display:inline;filter:url(#b)"><path d="M50.004 109.972H19.928v9.872l40.04 40.224s-9.964-10.148-10.056-28.692c-.092-18.544.092-21.404.092-21.404zM170.011 109.897h30.077v-9.872l-40.04-40.224s9.963 10.148 10.056 28.692c.092 18.544-.093 21.404-.093 21.404z" style="display:inline;fill:#fff;fill-opacity:1;stroke:#fff;stroke-width:20;stroke-linecap:round;stroke-linejoin:round"/><path d="M-117.695-117.695h15.39v15.39h-15.39z" style="display:inline;fill:#fffcfc;fill-opacity:1;stroke:#fff;stroke-width:64.6101;stroke-linecap:round;stroke-linejoin:round;stroke-dasharray:none;stroke-dashoffset:0;stroke-opacity:1;paint-order:normal" transform="scale(-1)"/></g></svg>
